<?xml version="1.0" encoding="UTF-8"?>
<svg width="16px" height="16px" viewBox="0 0 16 16" version="1.1" xmlns="http://www.w3.org/2000/svg" xmlns:xlink="http://www.w3.org/1999/xlink">
    <title>C2F5B4F8-52C3-43B3-B0B9-04E4360E740B</title>
    <g id="Page-1" stroke="none" stroke-width="1" fill="none" fill-rule="evenodd">
        <g id="Landing---VD" transform="translate(-152.000000, -1234.000000)">
            <g id="Content-with-photo-3" transform="translate(150.000000, 904.000000)">
                <g id="Group" transform="translate(0.000000, 328.000000)">
                    <path d="M15.321581,5.99710915 L10.053231,11.091558 L7.62637856,8.571334 L6.747369,9.41332139 L10.020621,12.808294 L15.9197263,7.111595 C16.2924108,7.93091586 16.7,9.04121516 16.7,10 C16.7,13.5898509 13.5898509,16.7 10,16.7 C6.41014913,16.7 3.3,13.5898509 3.3,10 C3.3,6.41014913 6.41014913,3.3 10,3.3 C12.0800042,3.3 14.1318198,4.47699164 15.321581,5.99710915 Z" id="Background-1"></path>
                    <path d="M10,3.5 C6.41014913,3.5 3.5,6.41014913 3.5,10 C3.5,13.5898509 6.41014913,16.5 10,16.5 C13.5898509,16.5 16.5,13.5898509 16.5,10 C16.5,9.04121516 16.2924108,8.13091538 15.9197263,7.31159452 L10.020621,13.0082942 L9.972981,12.9589615 L6.54736886,9.41332139 L7.62637856,8.37133384 L10.053231,10.8915578 L15.1215809,5.99710915 C13.9318198,4.47699164 12.0800042,3.5 10,3.5 Z M10,18 C5.581722,18 2,14.418278 2,10 C2,5.581722 5.581722,2 10,2 C14.418278,2 18,5.581722 18,10 C18,14.418278 14.418278,18 10,18 Z" id="Border" fill="#00344E"></path>
                </g>
            </g>
        </g>
    </g>
</svg>