<?xml version="1.0" encoding="UTF-8"?>
<svg width="40px" height="40px" viewBox="0 0 40 40" version="1.1" xmlns="http://www.w3.org/2000/svg" xmlns:xlink="http://www.w3.org/1999/xlink">
    <title>7271E034-43B4-4A15-BE74-20934CAB0062</title>
    <g id="Page-1" stroke="none" stroke-width="1" fill="none" fill-rule="evenodd">
        <g id="Landing---VD" transform="translate(-348.000000, -3918.000000)" fill="#00344E">
            <g id="Features-16" transform="translate(343.000000, 3738.000000)">
                <g id="Icon/List" transform="translate(0.000000, 175.000000)">
                    <path d="M40,15 C37.25,15 35,12.75 35,10 C35,7.25 37.25,5 40,5 C42.75,5 45,7.25 45,10 C45,12.75 42.75,15 40,15 Z M40,35 C37.25,35 35,32.75 35,30 C35,27.25 37.25,25 40,25 C42.75,25 45,27.25 45,30 C45,32.75 42.75,35 40,35 Z M10,15 C12.75,15 15,17.25 15,20 C15,22.75 12.75,25 10,25 C7.25,25 5,22.75 5,20 C5,17.25 7.25,15 10,15 Z M20,5 C22.75,5 25,7.25 25,10 C25,12.75 22.75,15 20,15 C17.25,15 15,12.75 15,10 C15,7.25 17.25,5 20,5 Z M30,35 C32.75,35 35,37.25 35,40 C35,42.75 32.75,45 30,45 C27.25,45 25,42.75 25,40 C25,37.25 27.25,35 30,35 Z M10,45 C7.25,45 5,42.75 5,40 C5,37.25 7.25,35 10,35 C12.75,35 15,37.25 15,40 C15,42.75 12.75,45 10,45 Z M30,15 C32.75,15 35,17.25 35,20 C35,22.75 32.75,25 30,25 C27.25,25 25,22.75 25,20 C25,17.25 27.25,15 30,15 Z M20,35 C17.25,35 15,32.75 15,30 C15,27.25 17.25,25 20,25 C22.75,25 25,27.25 25,30 C25,32.75 22.75,35 20,35 Z" id="Border"></path>
                </g>
            </g>
        </g>
    </g>
</svg>