<?xml version="1.0" encoding="UTF-8"?>
<svg width="16px" height="16px" viewBox="0 0 16 16" version="1.1" xmlns="http://www.w3.org/2000/svg" xmlns:xlink="http://www.w3.org/1999/xlink">
    <title>2EB921CF-4B87-4E1B-B2F0-53A442316292</title>
    <g id="Page-1" stroke="none" stroke-width="1" fill="none" fill-rule="evenodd">
        <g id="Landing---VD" transform="translate(-162.000000, -2818.000000)" fill="#FB0D4A">
            <g id="Features-with-photo-11" transform="translate(0.000000, 2766.000000)">
                <g id="Tabs" transform="translate(150.000000, 40.000000)">
                    <g id="Icon/Plus" transform="translate(10.000000, 10.000000)">
                        <path d="M16,6 C14.9,6 14,5.1 14,4 C14,2.9 14.9,2 16,2 C17.1,2 18,2.9 18,4 C18,5.1 17.1,6 16,6 Z M16,14 C14.9,14 14,13.1 14,12 C14,10.9 14.9,10 16,10 C17.1,10 18,10.9 18,12 C18,13.1 17.1,14 16,14 Z M4,6 C5.1,6 6,6.9 6,8 C6,9.1 5.1,10 4,10 C2.9,10 2,9.1 2,8 C2,6.9 2.9,6 4,6 Z M8,2 C9.1,2 10,2.9 10,4 C10,5.1 9.1,6 8,6 C6.9,6 6,5.1 6,4 C6,2.9 6.9,2 8,2 Z M12,14 C13.1,14 14,14.9 14,16 C14,17.1 13.1,18 12,18 C10.9,18 10,17.1 10,16 C10,14.9 10.9,14 12,14 Z M4,18 C2.9,18 2,17.1 2,16 C2,14.9 2.9,14 4,14 C5.1,14 6,14.9 6,16 C6,17.1 5.1,18 4,18 Z M12,6 C13.1,6 14,6.9 14,8 C14,9.1 13.1,10 12,10 C10.9,10 10,9.1 10,8 C10,6.9 10.9,6 12,6 Z M8,14 C6.9,14 6,13.1 6,12 C6,10.9 6.9,10 8,10 C9.1,10 10,10.9 10,12 C10,13.1 9.1,14 8,14 Z" id="Border"></path>
                    </g>
                </g>
            </g>
        </g>
    </g>
</svg>