<?xml version="1.0" encoding="UTF-8"?>
<svg width="53px" height="47px" viewBox="0 0 53 47" version="1.1" xmlns="http://www.w3.org/2000/svg" xmlns:xlink="http://www.w3.org/1999/xlink">
    <title>4AF45671-78AB-44B2-9BD8-BED9398EB1AE</title>
    <g id="Page-1" stroke="none" stroke-width="1" fill="none" fill-rule="evenodd">
        <g id="Landing---VD" transform="translate(-856.000000, -260.000000)" fill-rule="nonzero">
            <g id="Content" transform="translate(31.000000, 260.000000)">
                <g id="Group-11" transform="translate(794.000000, 0.000000)">
                    <g id="Group-7" transform="translate(31.000000, 0.000000)">
                        <path d="M51.7451957,21.9212165 C50.4128114,20.5427111 48.2434164,20.5170884 46.911032,21.8990101 L46.2790036,22.5429958 C45.8690391,22.6113232 45.424911,22.4780848 45.1003559,22.1432805 C44.7074733,21.7281916 44.6049822,21.1286186 44.7928826,20.6178713 L48.0384342,17.2766613 C49.3708185,15.8998642 49.3708185,13.6604336 48.0384342,12.2785119 C46.7060498,10.9000065 44.519573,10.8743837 43.1871886,12.2563054 L32.4427046,23.3731738 C31.9985765,23.4688321 31.5202847,23.3407183 31.1957295,22.9888321 C30.7857651,22.5737432 30.683274,21.9690457 30.8882562,21.4582983 L41.547331,10.4592948 C42.8797153,9.08078943 42.8797153,6.84306701 41.547331,5.45943712 C40.1978648,4.08263997 38.0284698,4.055309 36.6960854,5.4389389 L32.8014235,9.46000651 C32.3231317,9.61886772 31.7935943,9.50783569 31.4007117,9.11324495 C31.0078292,8.69303142 30.9053381,8.07637662 31.1103203,7.56562929 L32.5964413,6.04534459 C33.9288256,4.66683925 33.9288256,2.42740865 32.5964413,1.04548694 C31.2469751,-0.331310213 29.0775801,-0.358641173 27.7451957,1.02498872 L13.9430605,15.2883339 C13.4818505,15.4044905 12.9864769,15.2832094 12.627758,14.9159496 C12.2348754,14.5059852 12.1323843,13.8995795 12.3202847,13.3956649 L17.5985765,7.94313819 C18.9309609,6.56634103 18.9309609,4.32691043 17.5985765,2.94328053 C16.2661922,1.56648338 14.0967972,1.54086061 12.747331,2.92278231 L1.01209964,15.0816435 C-0.337366548,16.4584407 -0.337366548,18.6978713 1.01209964,20.079793 C2.34448399,21.4582983 4.513879,21.4582983 5.84626335,20.079793 L8.32313167,17.52264 C8.81850534,17.3313232 9.39928826,17.4423553 9.79217082,17.8523197 C10.1508897,18.2195795 10.2704626,18.7405759 10.1508897,19.2137432 L5.91459075,23.5798642 C4.58220641,24.9566613 4.58220641,27.1960919 5.91459075,28.5797218 C7.26405694,29.956519 9.43345196,29.956519 10.7658363,28.5797218 L27.0790036,11.735309 C27.5743772,11.5286186 28.172242,11.6396506 28.5822064,12.0547396 C28.9580071,12.4476222 29.0604982,13.0113232 28.9067616,13.5015723 L15.3950178,27.4523197 C14.0626335,28.8291168 14.0626335,31.0685474 15.3950178,32.4504691 C16.7274021,33.8289745 18.8967972,33.8289745 20.2291815,32.4504691 L26.8740214,25.5955225 C27.369395,25.3990812 27.9501779,25.5101133 28.3601423,25.9200777 C28.7017794,26.2702556 28.8213523,26.7656293 28.7188612,27.2182983 L27.6939502,28.2927467 C26.3615658,29.6695439 26.3615658,31.9089745 27.6939502,33.2908962 C29.0263345,34.6694015 31.1957295,34.6694015 32.5281139,33.2908962 L40.7957295,24.76022 C41.2911032,24.5689033 41.8718861,24.6748108 42.2647687,25.0847752 C42.5893238,25.4195795 42.7259786,25.8824976 42.6405694,26.3129603 L36.4569395,32.716946 C35.1074733,34.0937432 35.1074733,36.3331738 36.4569395,37.7168037 C37.7893238,39.0936008 39.9587189,39.0936008 41.2911032,37.7168037 L51.7451957,26.9244905 C53.0946619,25.5425688 53.0946619,23.3031382 51.7451957,21.9212165 Z" id="Path" fill="#FECD66"></path>
                        <path d="M46.9281139,46.4370884 C48.6192171,46.4370884 49.9857651,45.021003 49.9857651,43.2735296 C49.9857651,41.5260563 48.6192171,40.1082627 46.9281139,40.1082627 C45.2370107,40.1082627 43.8533808,41.5260563 43.8533808,43.2735296 C43.8533808,45.021003 45.2370107,46.4370884 46.9281139,46.4370884 Z" id="Path" fill="#00A9FF"></path>
                    </g>
                </g>
            </g>
        </g>
    </g>
</svg>