<?xml version="1.0" encoding="UTF-8"?>
<svg width="10px" height="14px" viewBox="0 0 10 14" version="1.1" xmlns="http://www.w3.org/2000/svg" xmlns:xlink="http://www.w3.org/1999/xlink">
    <title>275EFB54-7635-407F-9B15-A37C1E63F227</title>
    <g id="Page-1" stroke="none" stroke-width="1" fill="none" fill-rule="evenodd">
        <g id="Landing---VD" transform="translate(-738.000000, -7010.000000)" fill="#FFFFFF" fill-rule="nonzero">
            <g id="Footer-24" transform="translate(0.000000, 6834.000000)">
                <g id="Content" transform="translate(150.000000, 95.000000)">
                    <g id="ic-location-on-24px" transform="translate(588.000000, 81.000000)">
                        <path d="M5,0.333333333 C2.42,0.333333333 0.333333333,2.42 0.333333333,5 C0.333333333,8.5 5,13.6666667 5,13.6666667 C5,13.6666667 9.66666667,8.5 9.66666667,5 C9.66666667,2.42 7.58,0.333333333 5,0.333333333 Z M5,6.66666667 C4.08,6.66666667 3.33333333,5.92 3.33333333,5 C3.33333333,4.08 4.08,3.33333333 5,3.33333333 C5.92,3.33333333 6.66666667,4.08 6.66666667,5 C6.66666667,5.92 5.92,6.66666667 5,6.66666667 Z" id="Shape"></path>
                    </g>
                </g>
            </g>
        </g>
    </g>
</svg>