<?xml version="1.0" encoding="UTF-8"?>
<svg width="27px" height="20px" viewBox="0 0 27 20" version="1.1" xmlns="http://www.w3.org/2000/svg" xmlns:xlink="http://www.w3.org/1999/xlink">
    <title>EEAEA821-8FC2-4131-ADEA-9C106B630D35</title>
    <g id="Page-1" stroke="none" stroke-width="1" fill="none" fill-rule="evenodd">
        <g id="Landing---VD" transform="translate(-1154.000000, -699.000000)" fill="#FFFFFF" fill-rule="nonzero">
            <g id="Content" transform="translate(31.000000, 260.000000)">
                <g id="Group-11" transform="translate(794.000000, 0.000000)">
                    <g id="Group-8" transform="translate(49.000000, 420.000000)">
                        <g id="Group-22" transform="translate(109.000000, 19.000000)">
                            <g id="Group-7" transform="translate(171.000000, 0.000000)">
                                <path d="M25.8725979,10.9606082 C25.2064057,10.2713556 24.1217082,10.2585442 23.455516,10.949505 L23.1395018,11.2714979 C22.9345196,11.3056616 22.7124555,11.2390424 22.5501779,11.0716403 C22.3537367,10.8640958 22.3024911,10.5643093 22.3964413,10.3089356 L24.0192171,8.63833066 C24.6854093,7.94993208 24.6854093,6.83021678 24.0192171,6.13925593 C23.3530249,5.45000326 22.2597865,5.43719187 21.5935943,6.12815272 L16.2213523,11.6865869 C15.9992883,11.7344161 15.7601423,11.6703591 15.5978648,11.4944161 C15.3928826,11.2868716 15.341637,10.9845228 15.4441281,10.7291492 L20.7736655,5.22964738 C21.4398577,4.54039472 21.4398577,3.42153351 20.7736655,2.72971856 C20.0989324,2.04131998 19.0142349,2.0276545 18.3480427,2.71946945 L16.4007117,4.73000326 C16.1615658,4.80943386 15.8967972,4.75391785 15.7003559,4.55662247 C15.5039146,4.34651571 15.452669,4.03818831 15.5551601,3.78281464 L16.2982206,3.0226723 C16.9644128,2.33341963 16.9644128,1.21370432 16.2982206,0.52274347 C15.6234875,-0.165655106 14.53879,-0.179320587 13.8725979,0.51249436 L6.97153025,7.64416696 C6.74092527,7.70224525 6.49323843,7.64160468 6.313879,7.45797479 C6.11743772,7.25299258 6.06619217,6.94978973 6.16014235,6.69783244 L8.79928826,3.97156909 C9.46548043,3.28317052 9.46548043,2.16345521 8.79928826,1.47164027 C8.13309609,0.783241691 7.04839858,0.770430303 6.37366548,1.46139116 L0.506049822,7.54082176 C-0.168683274,8.22922034 -0.168683274,9.34893564 0.506049822,10.0398965 C1.17224199,10.7291492 2.2569395,10.7291492 2.92313167,10.0398965 L4.16156584,8.76131998 C4.40925267,8.66566162 4.69964413,8.72117763 4.89608541,8.92615984 C5.07544484,9.10978973 5.13523132,9.37028795 5.07544484,9.60687158 L2.95729537,11.7899321 C2.2911032,12.4783307 2.2911032,13.598046 2.95729537,14.2898609 C3.63202847,14.9782595 4.71672598,14.9782595 5.38291815,14.2898609 L13.5395018,5.8676545 C13.7871886,5.76430931 14.086121,5.81982532 14.2911032,6.0273698 C14.4790036,6.22381109 14.5302491,6.50566162 14.4533808,6.75078617 L7.6975089,13.7261598 C7.03131673,14.4145584 7.03131673,15.5342737 7.6975089,16.2252346 C8.36370107,16.9144872 9.44839858,16.9144872 10.1145907,16.2252346 L13.4370107,12.7977613 C13.6846975,12.6995406 13.975089,12.7550566 14.1800712,12.9600388 C14.3508897,13.1351278 14.4106762,13.3828146 14.3594306,13.6091492 L13.8469751,14.1463734 C13.1807829,14.8347719 13.1807829,15.9544872 13.8469751,16.6454481 C14.5131673,17.3347008 15.5978648,17.3347008 16.2640569,16.6454481 L20.3978648,12.38011 C20.6455516,12.2844517 20.9359431,12.3374054 21.1323843,12.5423876 C21.2946619,12.7097897 21.3629893,12.9412488 21.3202847,13.1564801 L18.2284698,16.358473 C17.5537367,17.0468716 17.5537367,18.1665869 18.2284698,18.8584018 C18.8946619,19.5468004 19.9793594,19.5468004 20.6455516,18.8584018 L25.8725979,13.4622452 C26.547331,12.7712844 26.547331,11.6515691 25.8725979,10.9606082 Z" id="Path"></path>
                            </g>
                        </g>
                    </g>
                </g>
            </g>
        </g>
    </g>
</svg>