<?xml version="1.0" encoding="UTF-8"?>
<svg width="35px" height="36px" viewBox="0 0 35 36" version="1.1" xmlns="http://www.w3.org/2000/svg" xmlns:xlink="http://www.w3.org/1999/xlink">
    <title>5B37D32D-A127-40D5-B00D-F10B0A38C008</title>
    <g id="Page-1" stroke="none" stroke-width="1" fill="none" fill-rule="evenodd">
        <g id="Landing---VD" transform="translate(-730.000000, -1652.000000)" fill="#00A9FF" fill-rule="nonzero">
            <g id="Features/-Square-icons-with-details" transform="translate(66.000000, 1471.000000)">
                <g id="Group-16" transform="translate(643.000000, 162.000000)">
                    <g id="Group-9" transform="translate(1.000000, 0.000000)">
                        <g id="Group-23" transform="translate(0.761905, 0.000000)">
                            <g id="room-key" transform="translate(20.238095, 19.000000)">
                                <path d="M9.75,19.5 C4.7865,19.5 0.75,15.4635 0.75,10.5 C0.75,5.5365 4.7865,1.5 9.75,1.5 C14.7135,1.5 18.75,5.5365 18.75,10.5 C18.75,15.4635 14.7135,19.5 9.75,19.5 Z M9.75,3 C5.6145,3 2.25,6.3645 2.25,10.5 C2.25,14.6355 5.6145,18 9.75,18 C13.8855,18 17.25,14.6355 17.25,10.5 C17.25,6.3645 13.8855,3 9.75,3 Z" id="Shape"></path>
                                <path d="M10.5,36 L9,36 C8.8005,36 8.61,35.9205 8.469,35.781 L5.469,32.781 C5.1765,32.4885 5.1765,32.013 5.469,31.7205 L6.4395,30.75 L5.4705,29.781 C5.178,29.4885 5.178,29.013 5.4705,28.7205 L6.4395,27.75 L5.4705,26.781 C5.178,26.4885 5.178,26.013 5.4705,25.7205 L6.4395,24.75 L5.4705,23.781 C5.3295,23.64 5.25,23.4495 5.25,23.25 L5.25,18 C5.25,17.586 5.586,17.25 6,17.25 C6.414,17.25 6.75,17.586 6.75,18 L6.75,22.9395 L8.031,24.2205 C8.3235,24.513 8.3235,24.9885 8.031,25.281 L7.0605,26.25 L8.0295,27.219 C8.322,27.5115 8.322,27.987 8.0295,28.2795 L7.0605,29.25 L8.0295,30.219 C8.322,30.5115 8.322,30.987 8.0295,31.2795 L7.0605,32.25 L9.3105,34.5 L10.098,34.5 L12.75,30.5235 L12.75,18 C12.75,17.586 13.086,17.25 13.5,17.25 C13.914,17.25 14.25,17.586 14.25,18 L14.25,30.75 C14.25,30.8985 14.2065,31.0425 14.124,31.1655 L11.124,35.6655 C10.9845,35.8755 10.7505,36 10.5,36 Z" id="Path"></path>
                                <path d="M10.5,34.5 C10.086,34.5 9.75,34.164 9.75,33.75 L9.75,18.75 C9.75,18.336 10.086,18 10.5,18 C10.914,18 11.25,18.336 11.25,18.75 L11.25,33.75 C11.25,34.164 10.914,34.5 10.5,34.5 Z" id="Path"></path>
                                <path d="M9.75,10.5 C8.0955,10.5 6.75,9.1545 6.75,7.5 C6.75,5.8455 8.0955,4.5 9.75,4.5 C11.4045,4.5 12.75,5.8455 12.75,7.5 C12.75,9.1545 11.4045,10.5 9.75,10.5 Z M9.75,6 C8.9235,6 8.25,6.6735 8.25,7.5 C8.25,8.3265 8.9235,9 9.75,9 C10.5765,9 11.25,8.3265 11.25,7.5 C11.25,6.6735 10.5765,6 9.75,6 Z" id="Shape"></path>
                                <path d="M24,9 C22.7595,9 21.75,7.9905 21.75,6.75 C21.75,5.5095 22.7595,4.5 24,4.5 C25.2405,4.5 26.25,5.5095 26.25,6.75 C26.25,7.9905 25.2405,9 24,9 Z M24,6 C23.586,6 23.25,6.336 23.25,6.75 C23.25,7.164 23.586,7.5 24,7.5 C24.414,7.5 24.75,7.164 24.75,6.75 C24.75,6.336 24.414,6 24,6 Z" id="Shape"></path>
                                <path d="M25.5,31.5 L22.5,31.5 C18.7785,31.5 15.75,28.4715 15.75,24.75 L15.75,15.75 C15.75,15.336 16.086,15 16.5,15 C16.914,15 17.25,15.336 17.25,15.75 L17.25,24.75 C17.25,27.645 19.605,30 22.5,30 L25.5,30 C28.395,30 30.75,27.645 30.75,24.75 L30.75,8.25 C30.75,5.355 28.395,3 25.5,3 L22.5,3 C20.2695,3 18.2775,4.413 17.5425,6.5175 C17.406,6.909 16.977,7.116 16.587,6.9795 C16.1955,6.843 15.99,6.4155 16.125,6.024 C17.07,3.318 19.632,1.5 22.5,1.5 L25.5,1.5 C29.2215,1.5 32.25,4.5285 32.25,8.25 L32.25,24.75 C32.25,28.4715 29.2215,31.5 25.5,31.5 Z" id="Path"></path>
                                <path d="M10.5,7.5 C10.4685,7.5 10.437,7.497 10.4055,7.4925 C9.996,7.44 9.705,7.0665 9.756,6.657 C9.7635,6.591 10.6635,0 17.25,0 C23.598,0 24.723,5.046 24.7335,5.097 C24.819,5.5035 24.558,5.8995 24.153,5.9835 C23.7435,6.0645 23.349,5.808 23.2665,5.403 C23.232,5.247 22.3485,1.5 17.25,1.5 C12,1.5 11.2725,6.627 11.244,6.8445 C11.1945,7.2225 10.872,7.5 10.5,7.5 Z" id="Path"></path>
                                <path d="M21,22.5 L19.5,22.5 C19.086,22.5 18.75,22.164 18.75,21.75 C18.75,21.336 19.086,21 19.5,21 L21,21 C21.414,21 21.75,20.664 21.75,20.25 C21.75,19.836 21.414,19.5 21,19.5 L19.5,19.5 C19.086,19.5 18.75,19.164 18.75,18.75 L18.75,15.75 C18.75,15.336 19.086,15 19.5,15 L22.5,15 C22.914,15 23.25,15.336 23.25,15.75 C23.25,16.164 22.914,16.5 22.5,16.5 L20.25,16.5 L20.25,18 L21,18 C22.2405,18 23.25,19.0095 23.25,20.25 C23.25,21.4905 22.2405,22.5 21,22.5 Z" id="Path"></path>
                                <path d="M28.5,22.5 C28.086,22.5 27.75,22.164 27.75,21.75 L27.75,21 L25.5,21 C25.2225,21 24.969,20.847 24.8385,20.604 C24.708,20.361 24.723,20.064 24.876,19.8345 L27.876,15.3345 C28.104,14.991 28.569,14.8965 28.9155,15.126 C29.2605,15.3555 29.3535,15.8205 29.124,16.1655 L26.901,19.5 L28.5,19.5 C28.914,19.5 29.25,19.836 29.25,20.25 L29.25,21.75 C29.25,22.164 28.914,22.5 28.5,22.5 Z" id="Path"></path>
                            </g>
                        </g>
                    </g>
                </g>
            </g>
        </g>
    </g>
</svg>