<?xml version="1.0" encoding="UTF-8"?>
<svg width="35px" height="36px" viewBox="0 0 35 36" version="1.1" xmlns="http://www.w3.org/2000/svg" xmlns:xlink="http://www.w3.org/1999/xlink">
    <title>2A3B6796-C7F5-40E5-A4DA-776EB7F294BE</title>
    <g id="Page-1" stroke="none" stroke-width="1" fill="none" fill-rule="evenodd">
        <g id="Landing---VD" transform="translate(-729.000000, -2396.000000)" fill="#F7C005" fill-rule="nonzero">
            <g id="Features/-Square-icons-with-details" transform="translate(66.000000, 1471.000000)">
                <g id="Group-16" transform="translate(643.000000, 162.000000)">
                    <g id="Group-9-Copy-3" transform="translate(0.000000, 744.000000)">
                        <g id="Group-23" transform="translate(0.761905, 0.000000)">
                            <g id="room-key" transform="translate(20.238095, 19.000000)">
                                <path d="M17.25,0 C19.5446234,0 21.1567996,0.659319981 22.2805756,1.50371746 L22.5,1.5 L22.5,1.5 L25.5,1.5 C29.2215,1.5 32.25,4.5285 32.25,8.25 L32.25,24.75 C32.25,28.4715 29.2215,31.5 25.5,31.5 L22.5,31.5 C18.7785,31.5 15.75,28.4715 15.75,24.75 L15.7507882,17.202639 C15.2909127,17.6147713 14.788515,17.9803752 14.2510677,18.2919784 L14.25,30.75 C14.25,30.8985 14.2065,31.0425 14.124,31.1655 L11.124,35.6655 C10.9845,35.8755 10.7505,36 10.5,36 L9,36 C8.8005,36 8.61,35.9205 8.469,35.781 L5.469,32.781 C5.1765,32.4885 5.1765,32.013 5.469,31.7205 L6.4395,30.75 L5.4705,29.781 C5.178,29.4885 5.178,29.013 5.4705,28.7205 L6.4395,27.75 L5.4705,26.781 C5.178,26.4885 5.178,26.013 5.4705,25.7205 L6.4395,24.75 L5.4705,23.781 C5.3295,23.64 5.25,23.4495 5.25,23.25 L5.24993208,18.292558 C2.56162547,16.7343826 0.75,13.8252152 0.75,10.5 C0.75,5.5365 4.7865,1.5 9.75,1.5 C10.6109115,1.5 11.4439348,1.62143558 12.2328443,1.84808108 C13.3484349,0.801196764 14.9535942,0 17.25,0 Z M6.75036032,18.9862752 L6.75,22.9395 L8.031,24.2205 C8.3235,24.513 8.3235,24.9885 8.031,25.281 L7.0605,26.25 L8.0295,27.219 C8.322,27.5115 8.322,27.987 8.0295,28.2795 L7.0605,29.25 L8.0295,30.219 C8.322,30.5115 8.322,30.987 8.0295,31.2795 L7.0605,32.25 L9.3105,34.5 L10.098,34.5 L10.1546355,34.4158355 C9.91427974,34.2908291 9.75,34.0394828 9.75,33.75 L9.75,19.5 L9.75,19.5 C8.69868244,19.5 7.6889532,19.3189091 6.75036032,18.9862752 Z M11.2507481,19.3749403 L11.25,32.772 L12.75,30.5235 L12.7506371,18.9859216 C12.2681393,19.1569814 11.7668381,19.2879926 11.2507481,19.3749403 Z M25.5,3 L23.7342877,3.0006767 C24.1660586,3.60928222 24.4251943,4.18236664 24.5709672,4.57507068 C25.5358437,4.8266685 26.25,5.70662543 26.25,6.75 C26.25,7.9905 25.2405,9 24,9 C22.7595,9 21.75,7.9905 21.75,6.75 C21.75,5.85809915 22.2718503,5.0856113 23.0262045,4.72188282 C22.8186033,4.25949023 22.4469595,3.62675902 21.8116691,3.04474497 C19.9742376,3.28835703 18.3849503,4.48958278 17.6601499,6.21161049 C18.3556039,7.48757415 18.75,8.94849967 18.75,10.5 C18.75,12.3595998 18.1834113,14.08908 17.2137593,15.5249153 C17.2378426,15.5953222 17.25,15.67125 17.25,15.75 L17.25,24.75 C17.25,27.645 19.605,30 22.5,30 L25.5,30 C28.395,30 30.75,27.645 30.75,24.75 L30.75,8.25 C30.75,5.355 28.395,3 25.5,3 Z M22.5,15 C22.914,15 23.25,15.336 23.25,15.75 C23.25,16.164 22.914,16.5 22.5,16.5 L20.25,16.5 L20.25,18 L21,18 C22.2405,18 23.25,19.0095 23.25,20.25 C23.25,21.4905 22.2405,22.5 21,22.5 L19.5,22.5 C19.086,22.5 18.75,22.164 18.75,21.75 C18.75,21.336 19.086,21 19.5,21 L21,21 C21.414,21 21.75,20.664 21.75,20.25 C21.75,19.836 21.414,19.5 21,19.5 L19.5,19.5 C19.086,19.5 18.75,19.164 18.75,18.75 L18.75,15.75 C18.75,15.336 19.086,15 19.5,15 L22.5,15 Z M28.9155,15.126 C29.2605,15.3555 29.3535,15.8205 29.124,16.1655 L26.901,19.5 L28.5,19.5 C28.914,19.5 29.25,19.836 29.25,20.25 L29.25,21.75 C29.25,22.164 28.914,22.5 28.5,22.5 C28.086,22.5 27.75,22.164 27.75,21.75 L27.75,21 L25.5,21 C25.2225,21 24.969,20.847 24.8385,20.604 C24.708,20.361 24.723,20.064 24.876,19.8345 L27.876,15.3345 C28.104,14.991 28.569,14.8965 28.9155,15.126 Z M9.75,3 C5.6145,3 2.25,6.3645 2.25,10.5 C2.25,14.6355 5.6145,18 9.75,18 C13.8855,18 17.25,14.6355 17.25,10.5 C17.25,7.39263762 15.3504607,4.7205687 12.6515979,3.58400905 C12.2176542,4.12912877 11.9133189,4.7083902 11.7015564,5.22549688 C12.3438316,5.77521923 12.75,6.59097043 12.75,7.5 C12.75,9.1545 11.4045,10.5 9.75,10.5 C8.0955,10.5 6.75,9.1545 6.75,7.5 C6.75,5.8455 8.0955,4.5 9.75,4.5 C9.96419866,4.5 10.1732182,4.52255193 10.3748094,4.56540663 C10.5694635,4.1104324 10.8222649,3.61810998 11.1481156,3.13143188 C10.6952915,3.04490981 10.2277915,3 9.75,3 Z M9.75,6 C8.9235,6 8.25,6.6735 8.25,7.5 C8.25,8.3265 8.9235,9 9.75,9 C10.5765,9 11.25,8.3265 11.25,7.5 C11.25,7.34635339 11.2267246,7.1979943 11.1835176,7.05826668 C11.0625584,7.32304157 10.797062,7.5 10.5,7.5 C10.4685,7.5 10.437,7.497 10.4055,7.4925 C9.996,7.44 9.705,7.0665 9.756,6.657 C9.75741969,6.64450673 9.79081894,6.39821333 9.88871354,6.00708042 C9.84336578,6.00217142 9.79692953,6 9.75,6 Z M24,6 C23.586,6 23.25,6.336 23.25,6.75 C23.25,7.164 23.586,7.5 24,7.5 C24.414,7.5 24.75,7.164 24.75,6.75 C24.75,6.336 24.414,6 24,6 Z M17.25,1.5 C15.7853365,1.5 14.6726673,1.89904369 13.8289698,2.47920059 C14.9398583,3.0453262 15.9173312,3.83577333 16.7024825,4.79014164 C17.4733444,3.49862957 18.653268,2.50880262 20.0363206,1.96594482 C19.288059,1.68110294 18.3708909,1.5 17.25,1.5 Z" id="Combined-Shape"></path>
                            </g>
                        </g>
                    </g>
                </g>
            </g>
        </g>
    </g>
</svg>