<?xml version="1.0" encoding="UTF-8"?>
<svg width="147px" height="136px" viewBox="0 0 147 136" version="1.1" xmlns="http://www.w3.org/2000/svg" xmlns:xlink="http://www.w3.org/1999/xlink">
    <title>8175919E-3164-4E37-933A-62C94CB8F548</title>
    <defs>
        <polygon id="path-1" points="6.70588235 70 28.5 42.952381 57 39.5714286 0 0.69047619"></polygon>
    </defs>
    <g id="Page-1" stroke="none" stroke-width="1" fill="none" fill-rule="evenodd">
        <g id="Landing---VD" transform="translate(-771.000000, -6387.000000)">
            <g id="Form-16" transform="translate(0.000000, 6260.000000)">
                <g id="Text" transform="translate(247.000000, 127.000000)">
                    <g id="shapebuilder-copy" transform="translate(524.000000, 0.000000)">
                        <g id="Clipped" transform="translate(19.000000, 66.000000)">
                            <mask id="mask-2" fill="white">
                                <use xlink:href="#path-1"></use>
                            </mask>
                            <g id="e"></g>
                        </g>
                        <g id="Group" fill-rule="nonzero">
                            <path d="M34.5251086,1.20125 L38.1035857,4.77765217 L41.6806286,1.20293478 C42.9954857,-0.111195652 45.1296,-0.111195652 46.4478286,1.20293478 C47.7626857,2.52043478 47.7626857,4.65336957 46.4478286,5.9675 L42.8705857,9.54165217 L46.44648,13.1160326 C47.7647086,14.4335326 47.7647086,16.5630978 46.44648,17.8805978 C45.7890514,18.537663 44.9259657,18.8678804 44.06288,18.8678804 C43.1997943,18.8678804 42.3367086,18.537663 41.67928,17.8805978 L38.1035857,14.3066522 L34.5264571,17.8822826 C33.8690286,18.5393478 33.0059429,18.8695652 32.1428571,18.8695652 C31.2797714,18.8695652 30.4166857,18.5393478 29.7592571,17.8822826 C28.4410286,16.5647826 28.4410286,14.4352174 29.7592571,13.1177174 L33.3365857,9.54165217 L29.7579086,5.96581522 C28.4430514,4.65168478 28.4430514,2.51875 29.7579086,1.20125 C31.0761371,-0.112880435 33.2102514,-0.112880435 34.5251086,1.20125 Z" id="Combined-Shape" fill="#FF5D5D"></path>
                            <path d="M11.8,112.73913 C9.01182857,112.73913 6.74285714,115.006848 6.74285714,117.793478 C6.74285714,120.580109 9.01182857,122.847826 11.8,122.847826 C14.5881714,122.847826 16.8571429,120.580109 16.8571429,117.793478 C16.8571429,115.006848 14.5881714,112.73913 11.8,112.73913 M11.8,129.586957 C5.29314286,129.586957 1.81188398e-13,124.296739 1.81188398e-13,117.793478 C1.81188398e-13,111.290217 5.29314286,106 11.8,106 C18.3068571,106 23.6,111.290217 23.6,117.793478 C23.6,124.296739 18.3068571,129.586957 11.8,129.586957" id="Shape" fill="#00D40B"></path>
                            <path d="M129.140651,16.9425109 L133.907851,21.7070761 L138.675051,16.9425109 L133.907851,12.1779457 L129.140651,16.9425109 Z M133.907851,29.8412065 C133.044766,29.8412065 132.18168,29.5109891 131.524251,28.8539239 L121.98648,19.3247935 C121.356023,18.6946848 120.998651,17.8388152 120.998651,16.9425109 C120.998651,16.0462065 121.356023,15.190337 121.98648,14.5602283 L131.524251,5.03109783 C132.84248,3.71359783 134.973223,3.71359783 136.291451,5.03109783 L145.825851,14.5602283 C147.14408,15.8777283 147.14408,18.0072935 145.825851,19.3247935 L136.291451,28.8539239 C135.634023,29.5109891 134.770937,29.8412065 133.907851,29.8412065 L133.907851,29.8412065 Z" id="Shape" fill="#FFC504"></path>
                        </g>
                    </g>
                </g>
            </g>
        </g>
    </g>
</svg>