<?xml version="1.0" encoding="UTF-8"?>
<svg width="117px" height="154px" viewBox="0 0 117 154" version="1.1" xmlns="http://www.w3.org/2000/svg" xmlns:xlink="http://www.w3.org/1999/xlink">
    <title>94F69AD5-9FB6-47DE-BCE9-AAB05FA53AAD</title>
    <g id="Page-1" stroke="none" stroke-width="1" fill="none" fill-rule="evenodd">
        <g id="Landing---VD" transform="translate(-1243.000000, -824.000000)" fill-rule="nonzero">
            <g id="Content" transform="translate(31.000000, 260.000000)">
                <g id="Group" transform="translate(1212.000000, 564.000000)">
                    <path d="M101.142857,80.8695652 C100.279771,80.8695652 99.4166857,80.5393478 98.7592571,79.8822826 C97.4410286,78.5647826 97.4410286,76.4352174 98.7592571,75.1177174 L110.680629,63.2029348 C111.995486,61.8888043 114.1296,61.8888043 115.447829,63.2029348 C116.762686,64.5204348 116.762686,66.6533696 115.447829,67.9675 L103.526457,79.8822826 C102.869029,80.5393478 102.005943,80.8695652 101.142857,80.8695652" id="Path" fill="#FF5D5D"></path>
                    <path d="M113.06288,80.8678804 C112.199794,80.8678804 111.336709,80.537663 110.67928,79.8805978 L98.7579086,67.9658152 C97.4430514,66.6516848 97.4430514,64.51875 98.7579086,63.20125 C100.076137,61.8871196 102.210251,61.8871196 103.525109,63.20125 L115.44648,75.1160326 C116.764709,76.4335326 116.764709,78.5630978 115.44648,79.8805978 C114.789051,80.537663 113.925966,80.8678804 113.06288,80.8678804" id="Path" fill="#FF5D5D"></path>
                    <path d="M59,6.73913043 C56.2118286,6.73913043 53.9428571,9.00684783 53.9428571,11.7934783 C53.9428571,14.5801087 56.2118286,16.8478261 59,16.8478261 C61.7881714,16.8478261 64.0571429,14.5801087 64.0571429,11.7934783 C64.0571429,9.00684783 61.7881714,6.73913043 59,6.73913043 M59,23.5869565 C52.4931429,23.5869565 47.2,18.2967391 47.2,11.7934783 C47.2,5.29021739 52.4931429,0 59,0 C65.5068571,0 70.8,5.29021739 70.8,11.7934783 C70.8,18.2967391 65.5068571,23.5869565 59,23.5869565" id="Shape" fill="#00D40B"></path>
                    <path d="M8.14065143,140.942511 L12.9078514,145.707076 L17.6750514,140.942511 L12.9078514,136.177946 L8.14065143,140.942511 Z M12.9078514,153.841207 C12.0447657,153.841207 11.18168,153.510989 10.5242514,152.853924 L0.98648,143.324793 C0.356022857,142.694685 -0.00134857143,141.838815 -0.00134857143,140.942511 C-0.00134857143,140.046207 0.356022857,139.190337 0.98648,138.560228 L10.5242514,129.031098 C11.84248,127.713598 13.9732229,127.713598 15.2914514,129.031098 L24.8258514,138.560228 C26.14408,139.877728 26.14408,142.007293 24.8258514,143.324793 L15.2914514,152.853924 C14.6340229,153.510989 13.7709371,153.841207 12.9078514,153.841207 L12.9078514,153.841207 Z" id="Shape" fill="#FFC504"></path>
                </g>
            </g>
        </g>
    </g>
</svg>