<?xml version="1.0" encoding="UTF-8"?>
<svg width="189px" height="168px" viewBox="0 0 189 168" version="1.1" xmlns="http://www.w3.org/2000/svg" xmlns:xlink="http://www.w3.org/1999/xlink">
    <title>DF63E2B5-9F10-4CA6-BACE-508C083A168E</title>
    <defs>
        <polygon id="path-1" points="6.70588235 70 28.5 42.952381 57 39.5714286 0 0.69047619"></polygon>
    </defs>
    <g id="Page-1" stroke="none" stroke-width="1" fill="none" fill-rule="evenodd">
        <g id="Landing---VD" transform="translate(-66.000000, -1573.000000)">
            <g id="Features/-Square-icons-with-details" transform="translate(66.000000, 1471.000000)">
                <g id="shapebuilder-copy" transform="translate(0.000000, 102.000000)">
                    <g id="Clipped" transform="translate(61.000000, 98.000000)">
                        <mask id="mask-2" fill="white">
                            <use xlink:href="#path-1"></use>
                        </mask>
                        <g id="e"></g>
                    </g>
                    <g id="Group" fill-rule="nonzero">
                        <path d="M76.5251086,33.20125 L80.1035857,36.7776522 L83.6806286,33.2029348 C84.9954857,31.8888043 87.1296,31.8888043 88.4478286,33.2029348 C89.7626857,34.5204348 89.7626857,36.6533696 88.4478286,37.9675 L84.8705857,41.5416522 L88.44648,45.1160326 C89.7647086,46.4335326 89.7647086,48.5630978 88.44648,49.8805978 C87.7890514,50.537663 86.9259657,50.8678804 86.06288,50.8678804 C85.1997943,50.8678804 84.3367086,50.537663 83.67928,49.8805978 L80.1035857,46.3066522 L76.5264571,49.8822826 C75.8690286,50.5393478 75.0059429,50.8695652 74.1428571,50.8695652 C73.2797714,50.8695652 72.4166857,50.5393478 71.7592571,49.8822826 C70.4410286,48.5647826 70.4410286,46.4352174 71.7592571,45.1177174 L75.3365857,41.5416522 L71.7579086,37.9658152 C70.4430514,36.6516848 70.4430514,34.51875 71.7579086,33.20125 C73.0761371,31.8871196 75.2102514,31.8871196 76.5251086,33.20125 Z" id="Combined-Shape" fill="#FF5D5D"></path>
                        <path d="M12,6.73913043 C9.21182857,6.73913043 6.94285714,9.00684783 6.94285714,11.7934783 C6.94285714,14.5801087 9.21182857,16.8478261 12,16.8478261 C14.7881714,16.8478261 17.0571429,14.5801087 17.0571429,11.7934783 C17.0571429,9.00684783 14.7881714,6.73913043 12,6.73913043 M12,23.5869565 C5.49314286,23.5869565 0.2,18.2967391 0.2,11.7934783 C0.2,5.29021739 5.49314286,0 12,0 C18.5068571,0 23.8,5.29021739 23.8,11.7934783 C23.8,18.2967391 18.5068571,23.5869565 12,23.5869565" id="Shape" fill="#00D40B"></path>
                        <path d="M171.140651,48.9425109 L175.907851,53.7070761 L180.675051,48.9425109 L175.907851,44.1779457 L171.140651,48.9425109 Z M175.907851,61.8412065 C175.044766,61.8412065 174.18168,61.5109891 173.524251,60.8539239 L163.98648,51.3247935 C163.356023,50.6946848 162.998651,49.8388152 162.998651,48.9425109 C162.998651,48.0462065 163.356023,47.190337 163.98648,46.5602283 L173.524251,37.0310978 C174.84248,35.7135978 176.973223,35.7135978 178.291451,37.0310978 L187.825851,46.5602283 C189.14408,47.8777283 189.14408,50.0072935 187.825851,51.3247935 L178.291451,60.8539239 C177.634023,61.5109891 176.770937,61.8412065 175.907851,61.8412065 L175.907851,61.8412065 Z" id="Shape" fill="#FFC504"></path>
                    </g>
                </g>
            </g>
        </g>
    </g>
</svg>