<?xml version="1.0" encoding="UTF-8"?>
<svg width="566px" height="468px" viewBox="0 0 566 468" version="1.1" xmlns="http://www.w3.org/2000/svg" xmlns:xlink="http://www.w3.org/1999/xlink">
    <title>928018BA-C03F-4863-91AA-BFADEA84D126</title>
    <g id="Page-1" stroke="none" stroke-width="1" fill="none" fill-rule="evenodd">
        <g id="Landing---VD" transform="translate(-781.000000, -873.000000)">
            <g id="undraw_investing_7u74" transform="translate(781.000000, 874.000000)">
                <path d="M106.678971,361.497286 C106.678971,361.497286 317.187919,185.65943 438.428412,361.497286" id="Path" fill="#F2F2F2" fill-rule="nonzero"></path>
                <ellipse id="Oval" fill="#F2F2F2" fill-rule="nonzero" cx="452.114368" cy="451.633989" rx="97.4988814" ry="15.2075984"></ellipse>
                <ellipse id="Oval" stroke="#3F3D56" cx="467.942108" cy="445.93114" rx="97.4988814" ry="15.2075984"></ellipse>
                <path d="M509.403444,288.595893 C513.327516,290.023656 517.724612,288.814994 520.369606,285.581544 C523.0146,282.348094 523.330471,277.795249 521.157376,274.226954 C518.98428,270.658659 514.79629,268.853355 510.712715,269.724607 L510.958798,274.789168 L508.5647,270.448793 C506.215034,271.553779 504.399815,273.547221 503.517943,275.991056 C503.204754,276.8471 503.014361,277.743247 502.952443,278.652766 C502.641921,283.037345 505.275181,287.096071 509.403444,288.595893 L509.403444,288.595893 Z" id="Path" fill="#57B894" fill-rule="nonzero"></path>
                <path d="M521.249495,347.33618 C520.404382,343.028995 524.066447,339.210538 527.683731,336.728557 C531.301015,334.246575 535.527605,331.807923 536.761827,327.595868 C538.535622,321.542407 533.252025,315.998573 529.139662,311.217804 C526.08867,307.669932 523.468586,303.772635 521.334237,299.607468 C520.406324,297.971414 519.774306,296.184241 519.467285,294.328239 C519.143038,291.644972 520.004352,288.974867 520.872098,286.415383 C523.762835,277.88899 526.853532,269.43403 530.144191,261.050503" id="Path" stroke="#3F3D56"></path>
                <path d="M509.80833,287.291981 C513.732403,288.71975 518.129504,287.51109 520.774501,284.277639 C523.419497,281.044188 523.73537,276.49134 521.562271,272.923043 C519.389173,269.354746 515.201178,267.549444 511.117601,268.420701 L511.363678,273.485256 L508.969587,269.144887 C506.619919,270.249869 504.8047,272.24331 503.922829,274.687144 C503.609641,275.543188 503.419248,276.439335 503.35733,277.348854 C503.046805,281.733434 505.680066,285.792161 509.80833,287.291981 L509.80833,287.291981 Z" id="Path" stroke="#3F3D56"></path>
                <path d="M520.047853,259.301503 C521.18909,256.149937 523.856537,253.797864 527.124119,253.06187 L527.933594,257.876602 L529.434361,252.81986 C533.709898,252.883328 537.454035,255.705758 538.695424,259.801094 C539.936812,263.89643 538.390678,268.325199 534.871084,270.755582 C531.35149,273.185965 526.665835,273.06043 523.281193,270.445074 C519.89655,267.829718 518.58936,263.324505 520.047878,259.301503 L520.047853,259.301503 Z" id="Path" fill="#57B894" fill-rule="nonzero"></path>
                <path d="M520.587699,257.562958 C521.728938,254.411393 524.396385,252.059321 527.663965,251.323324 L528.47344,256.138056 L529.974208,251.081314 C534.249744,251.144783 537.993881,253.967212 539.23527,258.062548 C540.476659,262.157885 538.930524,266.586653 535.41093,269.017036 C531.891336,271.44742 527.205682,271.321885 523.821039,268.706529 C520.436396,266.091173 519.129206,261.58596 520.587724,257.562958 L520.587699,257.562958 Z" id="Path" stroke="#3F3D56"></path>
                <path d="M527.413868,311.31538 C532.112008,313.021066 537.341102,310.927198 539.567215,306.448857 C541.793328,301.970516 540.307847,296.533239 536.114694,293.811656 L534.961497,297.697609 L534.143785,292.826109 C534.135703,292.822293 534.127335,292.819115 534.118758,292.816604 C530.817088,291.61787 527.127248,292.273119 524.439164,294.535523 C521.751081,296.797927 520.473138,300.323774 521.086725,303.784911 C521.700312,307.246048 524.11221,310.116647 527.413881,311.31538 L527.413868,311.31538 Z" id="Path" fill="#57B894" fill-rule="nonzero"></path>
                <path d="M527.881628,309.554416 C532.579769,311.260102 537.808863,309.166234 540.034975,304.687893 C542.261088,300.209552 540.775608,294.772275 536.582454,292.050692 L535.42927,295.936626 L534.611552,291.065126 C534.603472,291.06131 534.595106,291.058132 534.586531,291.055621 C531.284861,289.856888 527.595021,290.512136 524.906937,292.77454 C522.218854,295.036944 520.940911,298.562791 521.554498,302.023928 C522.168085,305.485065 524.579983,308.355664 527.881654,309.554397 L527.881628,309.554416 Z" id="Path" stroke="#3F3D56"></path>
                <path d="M517.178834,327.656039 C517.983033,332.235982 521.8824,335.626234 526.525934,335.782747 C531.169467,335.939261 535.287893,332.819255 536.398135,328.303839 C537.508376,323.788424 535.306958,319.111853 531.121157,317.093719 C526.935355,315.075586 521.909327,316.26753 519.073358,319.950907 L523.453584,326.549338 L517.468545,323.047098 C517.004488,324.538004 516.905129,326.118679 517.178834,327.656039 Z" id="Path" fill="#57B894" fill-rule="nonzero"></path>
                <path d="M517.583721,326.352134 C518.387926,330.932071 522.287294,334.322314 526.930823,334.478822 C531.574353,334.63533 535.692772,331.515322 536.803008,326.999909 C537.913245,322.484497 535.711825,317.807932 531.526025,315.789803 C527.340226,313.771674 522.314202,314.96362 519.478238,318.646995 L523.85847,325.245426 L517.873432,321.743192 C517.409374,323.234098 517.310015,324.814774 517.583721,326.352134 L517.583721,326.352134 Z" id="Path" stroke="#3F3D56"></path>
                <path d="M507.599848,353.170372 C507.599848,353.170372 516.275349,349.767602 518.889914,347.904209 C521.50448,346.040816 532.235004,343.815824 532.883612,346.804294 C533.53222,349.792765 545.921239,361.667599 536.126678,361.746672 C526.332118,361.825745 513.36842,363.355059 510.758881,361.764123 C508.149343,360.173186 507.599848,353.170372 507.599848,353.170372 Z" id="Path" fill="#656380" fill-rule="nonzero"></path>
                <path d="M536.301474,360.706371 C526.506888,360.785463 513.543221,362.314771 510.933676,360.723834 C508.946345,359.512251 508.154445,355.164823 507.889476,353.159068 C507.705976,353.166963 507.599854,353.170366 507.599854,353.170366 C507.599854,353.170366 508.149343,360.17318 510.758887,361.764116 C513.368432,363.355053 526.332118,361.825751 536.126685,361.746659 C538.953994,361.723848 539.930591,360.71706 539.876973,359.225943 C539.484192,360.126841 538.405879,360.689383 536.301474,360.706371 Z" id="Path" fill="#000000" fill-rule="nonzero" opacity="0.2"></path>
                <rect id="Rectangle" fill="#008DD4" fill-rule="nonzero" x="100.66443" y="261.697422" width="37.9865772" height="100.116689" rx="11.85052"></rect>
                <rect id="Rectangle" fill="#008DD4" fill-rule="nonzero" x="172.838926" y="201.500678" width="37.9865772" height="160.313433" rx="11.85052"></rect>
                <rect id="Rectangle" fill="#008DD4" fill-rule="nonzero" x="245.013423" y="159.679783" width="37.9865772" height="202.134328" rx="11.85052"></rect>
                <rect id="Rectangle" fill="#008DD4" fill-rule="nonzero" x="317.187919" y="119.759837" width="37.9865772" height="242.054274" rx="11.85052"></rect>
                <rect id="Rectangle" fill="#008DD4" fill-rule="nonzero" x="389.362416" y="50.0583446" width="37.9865772" height="311.755767" rx="11.85052"></rect>
                <rect id="Rectangle" stroke="#3F3D56" x="105.729306" y="256.628223" width="37.9865772" height="100.116689" rx="11.85052"></rect>
                <rect id="Rectangle" stroke="#3F3D56" x="177.903803" y="196.431479" width="37.9865772" height="160.313433" rx="11.85052"></rect>
                <rect id="Rectangle" stroke="#3F3D56" x="250.0783" y="154.610583" width="37.9865772" height="202.134328" rx="11.85052"></rect>
                <rect id="Rectangle" stroke="#3F3D56" x="322.252796" y="114.690638" width="37.9865772" height="242.054274" rx="11.85052"></rect>
                <rect id="Rectangle" stroke="#3F3D56" x="394.427293" y="44.9891452" width="37.9865772" height="311.755767" rx="11.85052"></rect>
                <line x1="545.107383" y1="362.130936" x2="0" y2="362.130936" id="Path" stroke="#3F3D56"></line>
                <path d="M510.731518,301.3487 C510.731518,301.3487 516.689624,322.816171 509.142692,325.996536 C501.595759,329.176901 503.979005,302.143791 503.979005,302.143791 L510.731518,301.3487 Z" id="Path" fill="#A0616A" fill-rule="nonzero"></path>
                <path d="M456.711408,438.899526 C456.711408,438.899526 451.150515,438.501981 449.164482,439.694618 C447.961205,440.398894 446.511207,440.544018 445.192416,440.092163 C445.192416,440.092163 436.453863,439.297072 439.631523,443.670074 C442.809182,448.043076 445.986803,449.633246 445.986803,451.620974 C445.986803,453.608702 459.094623,453.608702 459.491829,451.620974 C459.889036,449.633246 460.286243,439.297059 459.491829,438.899514 C458.697416,438.501968 456.711408,438.899526 456.711408,438.899526 Z" id="Path" fill="#575A89" fill-rule="nonzero"></path>
                <path d="M471.408054,438.899526 C471.408054,438.899526 476.968953,438.501981 478.954987,439.694618 C480.158263,440.398894 481.608262,440.544018 482.927053,440.092163 C482.927053,440.092163 491.665599,439.297072 488.487946,443.670074 C485.310293,448.043076 482.13264,449.633258 482.13264,451.620987 C482.13264,453.608715 469.024814,453.608715 468.627608,451.620987 C468.230401,449.633258 467.833194,439.297072 468.627608,438.899526 C469.422021,438.501981 471.408054,438.899526 471.408054,438.899526 Z" id="Path" fill="#575A89" fill-rule="nonzero"></path>
                <path d="M440.425936,296.975698 C440.425936,296.975698 437.645483,359.787921 439.234316,362.968286 C440.823149,366.148651 446.384023,419.817317 445.589622,422.997689 C444.795222,426.17806 440.823142,439.297066 445.589622,441.284788 C450.356102,443.272509 460.683475,441.284788 460.683475,441.284788 C460.683475,441.284788 463.463921,425.382962 462.272301,417.034498 C461.080681,408.686033 460.683475,373.702018 460.683475,373.702018 L468.627608,337.127813 L471.408054,371.714289 C471.408054,371.714289 472.202467,419.022226 466.641574,428.563327 C461.080681,438.104429 468.627608,442.079879 468.627608,442.079879 C468.627608,442.079879 483.721466,444.067607 485.310293,443.670061 C486.89912,443.272516 484.118673,427.768236 485.310293,421.009954 C486.501913,414.251672 489.282359,376.484837 491.665599,367.341288 C494.048839,358.197738 507.553865,307.311885 497.623699,296.97573 C487.693533,286.639575 440.425936,296.975698 440.425936,296.975698 Z" id="Path" fill="#3F3D56" fill-rule="nonzero"></path>
                <ellipse id="Oval" fill="#A0616A" fill-rule="nonzero" cx="469.422021" cy="156.244519" rx="13.9022326" ry="13.9140971"></ellipse>
                <path d="M459.094648,162.60525 C459.094648,162.60525 461.477888,181.687446 460.286268,182.084992 C459.094648,182.482537 481.338226,182.084992 481.338226,182.084992 C481.338226,182.084992 476.968953,170.556169 481.338226,161.412613 L459.094648,162.60525 Z" id="Path" fill="#A0616A" fill-rule="nonzero"></path>
                <path d="M459.094648,178.109536 C459.094648,178.109536 468.775635,168.56844 480.220617,178.109536 L480.961615,180.953559 L474.98292,180.892355 L459.094648,180.892355 L459.094648,178.109536 Z" id="Path" fill="#F2F2F2" fill-rule="nonzero"></path>
                <path d="M506.362245,300.156063 C505.444679,300.338922 503.19652,300.712611 500.265083,301.157864 C490.505787,302.632766 473.211391,304.866972 472.599674,303.336428 C471.805261,301.3487 469.024814,294.19286 467.038781,297.373244 C465.052748,300.553628 466.244368,303.336428 457.903009,303.733974 C452.226909,304.004302 443.976921,303.169443 439.409041,301.857546 C437.264161,301.241354 435.929509,300.521812 436.056637,299.758518 C436.453844,297.373244 440.823123,252.053036 440.823123,247.680034 C440.823123,243.307032 442.41195,222.237088 442.41195,222.237088 L430.99623,199.755885 L430.098538,197.986798 C430.098538,197.986798 431.290158,193.613796 434.865017,192.818705 C438.439877,192.023614 455.519788,182.085011 455.519788,182.085011 C455.519788,182.085011 459.094648,176.519372 465.847161,176.916918 C472.599674,177.314463 474.188501,174.531644 483.32426,182.085011 C483.32426,182.085011 494.446046,186.855558 498.418112,189.24082 C502.390179,191.626081 506.759452,191.626093 507.156658,195.60155 C507.236082,196.40062 506.803092,197.939122 506.060366,199.883122 C503.339558,207.00716 496.463886,219.613315 495.387404,221.577192 C495.292076,221.748132 495.24044,221.839587 495.24044,221.839587 C495.24044,221.839587 495.033888,228.987449 495.252368,237.355773 L495.252368,237.375644 C495.466878,245.402087 496.070637,254.549623 497.62368,259.606415 C500.801352,269.942589 510.334312,299.36094 506.362245,300.156063 Z" id="Path" fill="#575A89" fill-rule="nonzero"></path>
                <path d="M487.469716,150.532812 C487.191685,149.266247 486.656931,148.070255 485.89854,147.018836 C485.596112,144.111281 484.626956,141.312887 483.066597,138.84173 C482.45547,137.683762 481.587589,136.681186 480.529461,135.910826 C479.317882,135.212423 477.935166,134.867391 476.537806,134.914779 C476.28441,134.910553 475.828482,134.987472 475.418139,135.006183 C475.155626,134.924823 474.8906,134.852206 474.624935,134.783918 C474.469823,134.438686 474.162511,133.432545 474.076839,133.500682 L472.918527,134.4218 C472.42881,134.336656 471.936517,134.270319 471.442432,134.217714 C471.262544,133.704157 471.082642,133.190603 470.902725,132.677051 C470.610935,133.136422 470.355082,133.617693 470.137454,134.116558 C469.64565,134.092433 469.153513,134.083984 468.661042,134.091212 L467.676557,133.14471 C467.558086,133.684078 467.131741,134.102044 466.590495,134.209425 C466.13748,134.255942 465.686307,134.316702 465.236634,134.389103 C465.200028,134.388862 465.16289,134.389103 465.127005,134.388203 C462.70255,134.32769 460.093784,134.218892 458.066402,135.551046 C457.117791,136.20298 456.345556,137.080224 455.818863,138.104205 C455.570684,138.273061 455.321625,138.440674 455.080448,138.619699 C454.267341,139.174838 453.562554,139.87416 453.000886,140.683135 C452.592603,141.380885 452.282927,142.131909 452.080699,142.914768 C451.306984,145.270958 450.948545,147.743863 451.021399,150.22297 C451.104278,152.719019 452.045248,155.109974 453.685416,156.9921 C454.725223,158.110251 456.047029,158.935935 457.088241,160.052775 C459.232153,162.352392 459.634013,165.559617 461.467746,167.992839 C463.407283,170.566427 466.947233,172.259952 470.056131,172.745359 C473.831258,173.314787 477.677458,172.354721 480.743281,170.077693 C481.471746,169.56994 482.090589,168.920564 482.562907,168.16829 C483.641941,166.30029 483.184621,163.952446 483.585209,161.83233 C484.336152,157.858407 488.125453,154.523552 487.469716,150.532812 Z" id="Path" fill="#3F3D56" fill-rule="nonzero"></path>
                <path d="M434.46783,302.541337 C434.46783,302.541337 440.425936,324.008807 432.879003,327.189172 C425.332071,330.369538 427.715317,303.336428 427.715317,303.336428 L434.46783,302.541337 Z" id="Path" fill="#A0616A" fill-rule="nonzero"></path>
                <path d="M441.61358,253.82607 C441.61358,253.82607 439.007878,292.531138 439.40906,301.857546 C437.26418,301.241354 435.929528,300.521812 436.056656,299.758518 C436.453863,297.373244 440.823142,252.053036 440.823142,247.680034 C440.823142,243.307032 442.411969,222.237088 442.411969,222.237088 L430.996249,199.755885 C431.178952,198.642733 431.290177,197.986798 431.290177,197.986798 L437.049676,210.111943 L445.192416,212.298447 L441.61358,253.82607 Z" id="Path" fill="#000000" fill-rule="nonzero" opacity="0.1"></path>
                <path d="M432.879003,195.601543 L430.098557,197.986817 C430.098557,197.986817 426.523697,219.056742 426.920904,224.224835 C427.31811,229.392928 418.579564,307.70943 425.332077,307.70943 C432.08459,307.70943 439.631523,306.516793 438.439903,303.733974 C437.248283,300.951155 440.423612,253.826172 440.423612,253.826172 L444.000796,212.298466 L432.879003,195.601543 Z" id="Path" fill="#575A89" fill-rule="nonzero"></path>
                <path d="M506.060366,199.883097 C503.339558,207.007134 496.463886,219.613289 495.387404,221.577167 C495.419167,216.49257 495.439047,212.894781 495.439047,212.894781 L503.780386,195.800319 L505.567813,194.408906 C505.567813,194.408906 505.758486,196.511914 506.060366,199.883097 Z" id="Path" fill="#000000" fill-rule="nonzero" opacity="0.1"></path>
                <path d="M506.362245,300.156063 C505.444679,300.338922 503.19652,300.712611 500.265083,301.157864 C498.743847,289.899387 494.67646,257.523266 494.934604,254.474073 C495.061739,252.971365 495.168987,245.545216 495.252387,237.375631 C495.466897,245.402075 496.070656,254.54961 497.623699,259.606403 C500.801352,269.942589 510.334312,299.36094 506.362245,300.156063 Z" id="Path" fill="#000000" fill-rule="nonzero" opacity="0.1"></path>
                <path d="M501.198559,192.818724 L507.156658,194.408906 C507.156658,194.408906 511.128731,238.536478 511.525938,246.089851 C511.923144,253.643224 516.689624,300.156063 515.895211,302.143791 C515.100798,304.13152 502.787385,306.914339 502.390179,304.926611 C501.992972,302.938883 496.218664,258.086346 496.523975,254.473376 C496.829286,250.860405 494.843252,213.491103 494.843252,213.491103 L501.198559,192.818724 Z" id="Path" fill="#575A89" fill-rule="nonzero"></path>
                <polyline id="Path" stroke="#3F3D56" points="124.40604 218.292402 196.580537 158.095658 269.388143 116.908412 341.56264 76.9884668 413.737136 7.28697422"></polyline>
                <ellipse id="Oval" fill="#F2F2F2" fill-rule="nonzero" cx="122.506711" cy="221.460651" rx="6.96420582" ry="6.97014925"></ellipse>
                <ellipse id="Oval" fill="#F2F2F2" fill-rule="nonzero" cx="194.681208" cy="161.263908" rx="6.96420582" ry="6.97014925"></ellipse>
                <ellipse id="Oval" fill="#F2F2F2" fill-rule="nonzero" cx="267.488814" cy="120.076662" rx="6.96420582" ry="6.97014925"></ellipse>
                <ellipse id="Oval" fill="#F2F2F2" fill-rule="nonzero" cx="339.663311" cy="80.1567164" rx="6.96420582" ry="6.97014925"></ellipse>
                <ellipse id="Oval" fill="#F2F2F2" fill-rule="nonzero" cx="411.837808" cy="10.4552239" rx="6.96420582" ry="6.97014925"></ellipse>
                <ellipse id="Oval" stroke="#3F3D56" cx="124.40604" cy="218.292402" rx="6.96420582" ry="6.97014925"></ellipse>
                <ellipse id="Oval" stroke="#3F3D56" cx="196.580537" cy="158.095658" rx="6.96420582" ry="6.97014925"></ellipse>
                <ellipse id="Oval" stroke="#3F3D56" cx="269.388143" cy="116.908412" rx="6.96420582" ry="6.97014925"></ellipse>
                <ellipse id="Oval" stroke="#3F3D56" cx="341.56264" cy="76.9884668" rx="6.96420582" ry="6.97014925"></ellipse>
                <ellipse id="Oval" stroke="#3F3D56" cx="413.737136" cy="7.28697422" rx="6.96420582" ry="6.97014925"></ellipse>
            </g>
        </g>
    </g>
</svg>